# xmcd
#
# Track frame offsets:
#	150
#	12949
#	20926
#	29279
#	39842
#	47963
#	59246
#	70125
#	81681
#	92796
#	104723
#	116897
#	127130
#	137089
#	146556
#	157754
#	167538
#	177855
#	186733
#	196883
#
# Disc length: 2733 seconds
#
# Revision: 1
# Processed by: cddbd v1.4PL0 Copyright (c) Steve Scherf et al.
# Submitted via: audiograbber 1.81.03
#
DISCID=310aab14
DTITLE=Johnny Cash - The Jahnny Cash Collection (LP)
DYEAR=1900
DGENRE=
TTITLE0=Folsom Prison Blues
TTITLE1=I Walk The Line
TTITLE2=Rock Island Line
TTITLE3=Country Boy
TTITLE4=Doin' My Time
TTITLE5=Hey Porter
TTITLE6=Life Goes On
TTITLE7=You Win Again
TTITLE8=There You Go
TTITLE9=Sugartime
TTITLE10=I Can't Help It
TTITLE11=Mean Eyed Cat
TTITLE12=Big River
TTITLE13=Don't Make Me Go
TTITLE14=Wide Open Road
TTITLE15=Cold, Cold Heart
TTITLE16=New Mexico
TTITLE17=Cry, Cry, Cry
TTITLE18=Wreck Of The Old 97
TTITLE19=I Could Never Be - Ashamed Of You
EXTD=
EXTT0=
EXTT1=
EXTT2=
EXTT3=
EXTT4=
EXTT5=
EXTT6=
EXTT7=
EXTT8=
EXTT9=
EXTT10=
EXTT11=
EXTT12=
EXTT13=
EXTT14=
EXTT15=
EXTT16=
EXTT17=
EXTT18=
EXTT19=
PLAYORDER=
